<svg width="50" height="24" viewBox="0 0 50 24" fill="none" xmlns="http://www.w3.org/2000/svg">
<rect width="50" height="24" rx="12" fill="#111111"/>
<path d="M14.0386 20C9.60107 20 6.03857 16.4375 6.03857 12C6.03857 7.59375 9.60107 4 14.0386 4C14.5386 4.03125 15.0073 4.0625 15.4761 4.15625C15.8198 4.21875 15.9136 4.65625 15.6011 4.84375C13.6323 5.96875 12.4448 8.03125 12.4448 10.2812C12.4448 14.2188 16.0073 17.1875 19.8823 16.4375C20.2261 16.375 20.4761 16.7812 20.2573 17.0625C18.7573 18.9062 16.5073 20 14.0386 20Z" fill="#717171"/>
<path d="M37.1938 9C38.8188 9 40.1938 10.375 40.1938 12C40.1938 13.6562 38.8188 15 37.1938 15C35.5375 15 34.1938 13.6562 34.1938 12C34.1938 10.375 35.5375 9 37.1938 9ZM44.8813 11.5312C45.2875 11.7188 45.2875 12.3125 44.8813 12.5L41.9125 13.9688L42.975 17.125C43.1 17.5312 42.6938 17.9375 42.2875 17.8125L39.1313 16.75L37.6625 19.7188C37.475 20.125 36.8813 20.125 36.6938 19.7188L35.225 16.75L32.0688 17.8125C31.6625 17.9375 31.2563 17.5312 31.3813 17.125L32.4438 13.9688L29.475 12.5C29.0688 12.3125 29.0688 11.7188 29.475 11.5312L32.4438 10.0625L31.3813 6.90625C31.2563 6.5 31.6625 6.09375 32.0688 6.21875L35.225 7.28125L36.6938 4.3125C36.8813 3.90625 37.475 3.90625 37.6625 4.3125L39.1313 7.28125L42.2875 6.21875C42.6938 6.09375 43.1 6.5 42.975 6.90625L41.9125 10.0625L44.8813 11.5312ZM40.0063 14.8438C41.5688 13.2812 41.5688 10.75 40.0063 9.1875C38.4438 7.625 35.9125 7.625 34.35 9.1875C32.7875 10.75 32.7875 13.2812 34.35 14.8438C35.9125 16.4062 38.4438 16.4062 40.0063 14.8438Z" fill="#717171"/>
</svg>
